<svg xmlns="http://www.w3.org/2000/svg" xmlns:xlink="http://www.w3.org/1999/xlink" width="500" zoomAndPan="magnify" viewBox="0 0 375 374.999991" height="500" preserveAspectRatio="xMidYMid meet" version="1.0"><defs><g/><clipPath id="cb61f7ba77"><path d="M 17.25 0 L 357.75 0 C 362.324219 0 366.710938 1.816406 369.949219 5.050781 C 373.183594 8.289062 375 12.675781 375 17.25 L 375 357.75 C 375 362.324219 373.183594 366.710938 369.949219 369.949219 C 366.710938 373.183594 362.324219 375 357.75 375 L 17.25 375 C 12.675781 375 8.289062 373.183594 5.050781 369.949219 C 1.816406 366.710938 0 362.324219 0 357.75 L 0 17.25 C 0 12.675781 1.816406 8.289062 5.050781 5.050781 C 8.289062 1.816406 12.675781 0 17.25 0 Z M 17.25 0 " clip-rule="nonzero"/></clipPath></defs><g clip-path="url(#cb61f7ba77)"><rect x="-37.5" width="450" fill="#000000" y="-37.499999" height="449.999989" fill-opacity="1"/></g><g fill="#ffffff" fill-opacity="1"><g transform="translate(86.458007, 298.874982)"><g><path d="M 125.796875 -5.53125 L 104.53125 -68.421875 L 46.875 -68.421875 L 24.453125 -5.53125 L 46.296875 -5.53125 L 46.296875 0 L 1.75 0 L 1.75 -5.53125 L 15.4375 -5.53125 L 89.6875 -205.578125 L 113.5625 -205.578125 L 186.9375 -5.53125 L 200.34375 -5.53125 L 200.34375 0 L 105.125 0 L 105.125 -5.53125 Z M 76.875 -151.125 L 49.5 -74.828125 L 102.203125 -74.828125 Z M 76.875 -151.125 "/></g></g></g></svg>